#!OML:ASF H:\Pregnant\Project 1\Capture day 1\Session 1\femalepreg.ASF
:FULLY-SPECIFIED
:DEGREES
474
root 7.23219 15.8484 18.8943 -163.883 -15.7098 -176.262
lowerback -19.1615 6.14419 5.35321
upperback -7.67633 6.11489 -2.20706
thorax 3.20424 2.44828 -4.04514
lowerneck -2.99815 18.671 19.2531
upperneck 13.8003 25.3053 -10.5976
head 8.56013 12.4321 -3.45181
rclavicle -3.97072e-014 1.70955e-014
rhumerus -35.3732 6.79114 -89.1097
rradius 69.4747
rwrist -62.0954
rhand -40.3557 -76.19
rfingers 7.12502
rthumb -13.3106 105.745
lclavicle -3.97072e-014 1.70955e-014
lhumerus -38.6627 -48.4801 96.1171
lradius 64.1043
lwrist 76.9559
lhand -33.7628 22.1267
lfingers 7.12502
lthumb -6.95063 51.9926
rfemur -16.8595 18.2683 20.4994
rtibia 17.3713
rfoot -10.3103 -32.6737
rtoes -8.12877
lfemur -29.2511 -9.07328 -12.0501
ltibia 25.178
lfoot -10.9673 4.21832
ltoes -21.7962
475
root 7.23873 15.8477 18.8929 -163.903 -15.8346 -176.262
lowerback -19.2217 6.17542 5.38043
upperback -7.67184 6.14801 -2.22137
thorax 3.24781 2.46503 -4.06336
lowerneck -2.92949 18.6396 19.2901
upperneck 13.8302 25.2699 -10.5944
head 8.55819 12.4197 -3.46713
rclavicle -7.65321e-015 -5.92378e-014
rhumerus -35.5368 6.7623 -88.9526
rradius 69.2286
rwrist -61.6947
rhand -40.446 -76.0984
rfingers 7.12502
rthumb -13.3977 105.648
lclavicle -7.65321e-015 -5.92378e-014
lhumerus -39.3679 -48.3165 96.1053
lradius 64.0744
lwrist 77.048
lhand -33.7721 22.114
lfingers 7.12502
lthumb -6.95953 51.9796
rfemur -16.7957 18.2419 20.5524
rtibia 17.3322
rfoot -10.3563 -32.7519
rtoes -7.99363
lfemur -29.2699 -9.09331 -12.0202
ltibia 25.1763
lfoot -10.974 4.1339
ltoes -21.8056
476
root 7.24538 15.8472 18.8917 -163.915 -15.9614 -176.266
lowerback -19.2933 6.19938 5.39809
upperback -7.66924 6.17149 -2.23348
thorax 3.29294 2.47669 -4.07549
lowerneck -2.85322 18.6158 19.3335
upperneck 13.86 25.2459 -10.5919
head 8.55755 12.4132 -3.48181
rclavicle 9.56154e-014 -1.66979e-014
rhumerus -35.7064 6.76785 -88.805
rradius 68.9762
rwrist -61.2798
rhand -40.5193 -76.0005
rfingers 7.12502
rthumb -13.4684 105.545
lclavicle 9.56154e-014 -1.66979e-014
lhumerus -40.0832 -48.1297 96.1
lradius 64.0109
lwrist 77.1229
lhand -33.8815 22.1272
lfingers 7.12502
lthumb -7.06513 51.9893
rfemur -16.742 18.2157 20.5994
rtibia 17.2971
rfoot -10.399 -32.8328
rtoes -7.87934
lfemur -29.2937 -9.1135 -11.9923
ltibia 25.1664
lfoot -10.9782 4.04541
ltoes -21.8193
477
root 7.25224 15.8469 18.8906 -163.914 -16.0791 -176.27
lowerback -19.38 6.22587 5.40894
upperback -7.66132 6.19879 -2.2454
thorax 3.35132 2.49079 -4.08139
lowerneck -2.7932 18.5957 19.3683
upperneck 13.8807 25.2259 -10.5941
head 8.55663 12.4073 -3.49498
rclavicle 6.55989e-015 -2.3059e-014
rhumerus -35.8624 6.79029 -88.6551
rradius 68.7134
rwrist -60.8571
rhand -40.5748 -75.886
rfingers 7.12502
rthumb -13.5219 105.427
lclavicle 6.55989e-015 -2.3059e-014
lhumerus -40.7752 -47.9333 96.0865
lradius 63.9119
lwrist 77.1856
lhand -34.0697 22.1745
lfingers 7.12502
lthumb -7.24686 52.0304
rfemur -16.7097 18.1846 20.6402
rtibia 17.2678
rfoot -10.4325 -32.9014
rtoes -7.79435
lfemur -29.328 -9.11965 -11.9654
ltibia 25.1509
lfoot -10.9818 3.95059
ltoes -21.8351
478
root 7.25925 15.8472 18.8901 -163.892 -16.178 -176.271
lowerback -19.4832 6.25777 5.4157
upperback -7.65743 6.23119 -2.25569
thorax 3.41381 2.50666 -4.08103
lowerneck -2.71992 18.5756 19.4071
upperneck 13.8859 25.2083 -10.6054
head 8.55039 12.403 -3.51262
rclavicle 2.94698e-014 -1.39149e-014
rhumerus -36.0163 6.83529 -88.5082
rradius 68.44
rwrist -60.4233
rhand -40.6179 -75.7977
rfingers 7.12502
rthumb -13.5633 105.336
lclavicle 2.94698e-014 -1.39149e-014
lhumerus -41.4578 -47.7199 96.0743
lradius 63.7703
lwrist 77.2509
lhand -34.2527 22.1768
lfingers 7.12502
lthumb -7.42347 52.0266
rfemur -16.713 18.1501 20.6726
rtibia 17.2459
rfoot -10.4571 -32.9482
rtoes -7.7266
lfemur -29.3801 -9.11753 -11.9327
ltibia 25.1317
lfoot -10.9809 3.86727
ltoes -21.8561
479
root 7.26632 15.8469 18.8894 -163.883 -16.292 -176.28
lowerback -19.5769 6.28556 5.41639
upperback -7.63044 6.26471 -2.26716
thorax 3.49586 2.5263 -4.0778
lowerneck -2.68455 18.5523 19.4219
upperneck 13.8738 25.1832 -10.6256
head 8.54151 12.3925 -3.52895
rclavicle -6.5102e-014 -6.63941e-014
rhumerus -36.1373 6.88328 -88.3488
rradius 68.152
rwrist -59.9764
rhand -40.6397 -75.6946
rfingers 7.12502
rthumb -13.5844 105.231
lclavicle -6.5102e-014 -6.63941e-014
lhumerus -42.0775 -47.5124 96.0366
lradius 63.5804
lwrist 77.3154
lhand -34.4065 22.1402
lfingers 7.12502
lthumb -7.57198 51.9847
rfemur -16.699 18.1338 20.7045
rtibia 17.235
rfoot -10.4951 -33.029
rtoes -7.6432
lfemur -29.416 -9.11373 -11.9113
ltibia 25.1104
lfoot -10.9848 3.76198
ltoes -21.8805
480
root 7.27332 15.8464 18.8884 -163.887 -16.4166 -176.295
lowerback -19.6578 6.31509 5.41717
upperback -7.58862 6.30507 -2.28432
thorax 3.58876 2.55143 -4.07909
lowerneck -2.70412 18.5291 19.4096
upperneck 13.8735 25.1496 -10.6278
head 8.53837 12.3756 -3.53308
rclavicle -1.19022e-013 -7.95139e-016
rhumerus -36.2387 6.92327 -88.1837
rradius 67.8465
rwrist -59.5092
rhand -40.6251 -75.5479
rfingers 7.12502
rthumb -13.5703 105.086
lclavicle -1.19022e-013 -7.95139e-016
lhumerus -42.6541 -47.3218 95.9883
lradius 63.3426
lwrist 77.3838
lhand -34.6241 22.0902
lfingers 7.12502
lthumb -7.782 51.927
rfemur -16.6725 18.136 20.7361
rtibia 17.2376
rfoot -10.5513 -33.1392
rtoes -7.52697
lfemur -29.4377 -9.11501 -11.8967
ltibia 25.0883
lfoot -10.9919 3.64672
ltoes -21.9
481
root 7.28008 15.8452 18.8872 -163.91 -16.5583 -176.317
lowerback -19.7215 6.34307 5.41949
upperback -7.53203 6.3482 -2.30756
thorax 3.68986 2.58008 -4.08746
lowerneck -2.77234 18.5065 19.3728
upperneck 13.8859 25.1082 -10.6084
head 8.54021 12.3534 -3.52468
rclavicle -3.42904e-015 1.51076e-014
rhumerus -36.3278 6.95155 -88.016
rradius 67.5297
rwrist -59.019
rhand -40.5911 -75.4402
rfingers 7.12502
rthumb -13.5376 104.98
lclavicle -3.42904e-015 1.51076e-014
lhumerus -43.1952 -47.144 95.9307
lradius 63.0581
lwrist 77.456
lhand -34.873 22.0196
lfingers 7.12502
lthumb -8.02224 51.8473
rfemur -16.6243 18.153 20.7695
rtibia 17.2559
rfoot -10.6339 -33.2809
rtoes -7.36894
lfemur -29.439 -9.12293 -11.8926
ltibia 25.0663
lfoot -11.0049 3.51656
ltoes -21.9145
482
root 7.28666 15.8436 18.8856 -163.948 -16.7111 -176.342
lowerback -19.7768 6.36628 5.41785
upperback -7.46968 6.38771 -2.3301
thorax 3.79206 2.60781 -4.09399
lowerneck -2.84484 18.4833 19.3323
upperneck 13.905 25.0646 -10.5817
head 8.5432 12.3302 -3.51352
rclavicle -4.96962e-016 -4.6118e-014
rhumerus -36.4172 6.9912 -87.8549
rradius 67.1946
rwrist -58.5059
rhand -40.5348 -75.3389
rfingers 7.12502
rthumb -13.4833 104.882
lclavicle -4.96962e-016 -4.6118e-014
lhumerus -43.7274 -46.9556 95.8786
lradius 62.7304
lwrist 77.5247
lhand -35.1639 21.9655
lfingers 7.12502
lthumb -8.30293 51.7824
rfemur -16.5569 18.1915 20.8054
rtibia 17.2837
rfoot -10.7341 -33.4541
rtoes -7.17996
lfemur -29.4234 -9.1378 -11.8944
ltibia 25.0453
lfoot -11.0223 3.38036
ltoes -21.921
483
root 7.29279 15.842 18.8843 -163.987 -16.8598 -176.368
lowerback -19.8299 6.38982 5.41625
upperback -7.40933 6.42724 -2.34938
thorax 3.89065 2.63524 -4.09718
lowerneck -2.90021 18.4584 19.2978
upperneck 13.9201 25.0222 -10.5641
head 8.5443 12.308 -3.50722
rclavicle 3.84648e-014 -4.92986e-014
rhumerus -36.5172 7.04796 -87.7023
rradius 66.8459
rwrist -57.9572
rhand -40.482 -75.2415
rfingers 7.12502
rthumb -13.4324 104.788
lclavicle 3.84648e-014 -4.92986e-014
lhumerus -44.2581 -46.743 95.8385
lradius 62.3624
lwrist 77.583
lhand -35.4412 21.9344
lfingers 7.12502
lthumb -8.57055 51.7405
rfemur -16.4911 18.2087 20.8421
rtibia 17.3144
rfoot -10.8286 -33.6042
rtoes -7.01101
lfemur -29.4072 -9.16039 -11.8962
ltibia 25.0268
lfoot -11.0398 3.2558
ltoes -21.9124
484
root 7.29874 15.8405 18.8834 -164.02 -16.9937 -176.387
lowerback -19.886 6.41479 5.4144
upperback -7.36232 6.46549 -2.36352
thorax 3.9757 2.6602 -4.09539
lowerneck -2.9103 18.4315 19.285
upperneck 13.9308 24.9837 -10.5567
head 8.54124 12.2896 -3.50992
rclavicle 4.64659e-014 -4.6118e-014
rhumerus -36.6379 7.13438 -87.5681
rradius 66.4805
rwrist -57.3753
rhand -40.4273 -75.1801
rfingers 7.12502
rthumb -13.3796 104.73
lclavicle 4.64659e-014 -4.6118e-014
lhumerus -44.8027 -46.4968 95.8174
lradius 61.9459
lwrist 77.6381
lhand -35.6219 21.8171
lfingers 7.12502
lthumb -8.74498 51.616
rfemur -16.4356 18.211 20.8796
rtibia 17.3376
rfoot -10.9113 -33.724
rtoes -6.86202
lfemur -29.3992 -9.19119 -11.8889
ltibia 25.0126
lfoot -11.0538 3.15819
ltoes -21.9077
